<?xml version="1.0" standalone="no"?>
<!DOCTYPE svg PUBLIC "-//W3C//DTD SVG 20010904//EN"
 "http://www.w3.org/TR/2001/REC-SVG-20010904/DTD/svg10.dtd">
<svg version="1.0" xmlns="http://www.w3.org/2000/svg"
 width="180.000000pt" height="180.000000pt" viewBox="0 0 180.000000 180.000000"
 preserveAspectRatio="xMidYMid meet">

<g transform="translate(0.000000,180.000000) scale(0.100000,-0.100000)"
fill="#000000" stroke="none">
<path d="M524 1552 c-5 -4 -20 -45 -33 -92 -13 -47 -31 -98 -38 -114 -8 -15
-13 -37 -10 -47 3 -10 -3 -28 -13 -39 -24 -27 -34 -88 -21 -122 5 -15 11 -50
12 -80 3 -63 22 -125 49 -153 22 -23 37 -139 20 -150 -6 -4 -30 -46 -54 -93
-24 -48 -60 -105 -80 -126 -40 -45 -42 -52 -21 -92 8 -16 15 -38 15 -49 0 -11
5 -27 10 -35 7 -12 11 -8 16 18 5 23 11 31 21 28 8 -4 17 -6 19 -6 2 0 4 -7 4
-15 0 -8 6 -15 14 -15 8 0 17 -13 21 -29 4 -20 14 -31 31 -35 13 -4 24 -11 24
-16 0 -6 7 -10 15 -10 8 0 15 -5 15 -11 0 -5 5 -7 10 -4 6 4 17 1 25 -5 8 -6
18 -9 24 -6 5 3 7 -3 4 -14 -6 -24 -1 -25 39 -4 30 15 32 15 45 -2 7 -10 13
-21 13 -26 0 -4 5 -8 10 -8 6 0 3 14 -6 31 -9 18 -27 61 -41 98 -13 36 -44 98
-69 138 -71 114 -99 183 -95 236 1 23 20 22 29 -2 4 -10 20 -33 35 -52 16 -19
43 -56 60 -84 33 -51 65 -71 62 -38 0 10 -4 23 -7 28 -3 6 -9 25 -13 44 -7 32
-6 34 15 28 19 -5 21 -2 18 17 -4 22 -2 23 51 24 33 0 59 6 66 14 25 32 63 41
140 35 83 -7 135 -28 142 -58 4 -15 11 -18 27 -13 33 10 32 12 -9 50 -27 25
-41 31 -46 23 -6 -10 -11 -9 -25 2 -9 7 -27 12 -40 11 -17 -3 -27 3 -34 20
l-9 23 -7 -23 c-7 -24 -34 -27 -42 -4 -2 8 2 10 13 5 14 -5 16 -2 11 15 -6 16
-3 19 12 15 13 -3 21 2 25 16 3 11 17 25 31 31 37 14 32 19 -14 13 -35 -5 -41
-3 -51 21 -8 16 -20 26 -34 26 -25 0 -45 18 -45 41 0 32 19 31 39 -1 21 -35
30 -30 25 14 -3 30 -18 46 -43 46 -18 0 -87 -73 -72 -78 6 -2 11 -13 11 -25 0
-38 12 -67 27 -67 10 0 13 -9 11 -32 -5 -54 -38 -67 -38 -15 -1 27 -2 29 -11
14 -5 -9 -7 -22 -3 -29 4 -7 3 -8 -5 -4 -6 4 -19 2 -27 -5 -13 -10 -17 -10
-24 1 -13 21 -38 -5 -33 -34 4 -18 0 -25 -18 -29 -48 -13 -55 31 -9 51 34 15
41 33 10 25 -22 -6 -25 0 -10 27 7 13 7 21 0 25 -5 3 -10 19 -10 34 0 30 -27
61 -53 61 -10 0 -17 8 -17 20 0 11 7 20 15 20 17 0 21 55 5 65 -18 11 -32 85
-19 101 16 20 24 18 38 -10 9 -17 24 -26 50 -29 46 -6 59 5 26 23 -25 13 -29
38 -6 32 6 -1 11 3 11 9 0 6 9 8 20 4 11 -4 20 -2 20 4 0 6 -14 11 -31 11 -33
0 -69 30 -69 57 0 8 -4 12 -9 8 -15 -9 -25 16 -22 52 2 23 -2 35 -13 39 -9 3
-13 11 -9 17 4 6 0 8 -10 4 -11 -4 -17 -1 -17 8 0 9 -6 12 -15 8 -10 -3 -15 0
-13 8 2 8 -5 14 -17 14 -15 0 -24 -12 -36 -50 l-16 -50 -15 34 c-13 32 -12 36
10 60 30 33 52 83 41 96 -4 6 -4 28 1 50 10 43 9 47 -6 37z m34 -317 c-12 -13
-26 -21 -31 -18 -10 6 35 51 46 45 4 -2 -3 -14 -15 -27z m-108 -25 c0 -5 -4
-10 -10 -10 -5 0 -10 5 -10 10 0 6 5 10 10 10 6 0 10 -4 10 -10z m205 -476
c-8 -6 -15 -17 -15 -25 -1 -10 -4 -8 -11 4 -6 9 -7 26 -4 37 5 17 9 18 26 7
17 -10 17 -13 4 -23z"/>
<path d="M781 1242 c-11 -11 -11 -13 0 -11 30 5 90 -14 99 -32 13 -24 13 -49
-1 -49 -6 0 -25 10 -42 22 l-32 21 29 -31 c17 -18 36 -32 43 -32 7 0 13 -9 13
-19 0 -10 6 -21 14 -24 9 -4 12 -14 9 -28 l-6 -21 -12 21 c-15 28 -25 17 -25
-28 0 -20 4 -31 8 -25 9 14 40 25 45 16 2 -4 2 -1 1 6 -2 6 0 12 4 12 16 0 0
125 -20 158 -33 54 -97 76 -127 44z"/>
<path d="M1090 1205 c-14 -16 -12 -17 28 -10 34 5 50 3 80 -15 l37 -22 -26 27
c-33 34 -98 45 -119 20z"/>
<path d="M1120 1140 c0 -5 5 -10 10 -10 6 0 10 5 10 10 0 6 -4 10 -10 10 -5 0
-10 -4 -10 -10z"/>
<path d="M830 679 c0 -5 5 -7 10 -4 6 3 10 8 10 11 0 2 -4 4 -10 4 -5 0 -10
-5 -10 -11z"/>
<path d="M825 650 c-3 -5 -1 -10 4 -10 6 0 11 5 11 10 0 6 -2 10 -4 10 -3 0
-8 -4 -11 -10z"/>
<path d="M675 600 c3 -5 8 -10 11 -10 2 0 4 5 4 10 0 6 -5 10 -11 10 -5 0 -7
-4 -4 -10z"/>
<path d="M690 496 c0 -4 12 -18 27 -31 20 -16 30 -20 35 -12 12 18 10 24 -9
30 -10 2 -26 8 -35 12 -10 4 -18 4 -18 1z"/>
<path d="M785 467 c0 -17 6 -32 13 -34 6 -3 12 0 12 5 0 6 -6 13 -12 15 -7 3
-3 6 10 6 21 1 27 -8 23 -38 -4 -24 23 -5 30 22 6 21 3 28 -12 32 -10 4 -19
10 -19 14 0 5 -10 9 -22 9 -19 0 -23 -6 -23 -31z"/>
<path d="M982 378 c-7 -7 -12 -17 -12 -22 0 -8 3 -8 8 -1 4 6 18 16 32 22 22
10 23 12 5 12 -12 1 -26 -4 -33 -11z"/>
<path d="M929 229 c-10 -19 -6 -27 32 -65 23 -24 45 -41 48 -39 2 3 -10 21
-28 39 -27 28 -32 40 -27 60 8 31 -9 35 -25 5z"/>
</g>
</svg>
